/vscmnt/brussel_pixiu_data/_data_brussel/112/vsc11236/PredSimResults/SUBJ09opt3D/expIG/worker_02.mot
version=1
nRows=5
nColumns=50
inDegrees=yes
endheader
                time	         pelvis_tilt	         pelvis_list	     pelvis_rotation	           pelvis_tx	           pelvis_ty	           pelvis_tz	       hip_flexion_r	     hip_adduction_r	      hip_rotation_r	        knee_angle_r	       ankle_angle_r	         mtp_angle_r	       hip_flexion_l	     hip_adduction_l	      hip_rotation_l	        knee_angle_l	       ankle_angle_l	         mtp_angle_l	    lumbar_extension	      lumbar_bending	     lumbar_rotation	 ercspn_r/activation	 intobl_r/activation	 extobl_r/activation	    abd_r/activation	    add_r/activation	hamstrings_r/activation	bifemsh_r/activation	glut_max_r/activation	iliopsoas_r/activation	rect_fem_r/activation	  vasti_r/activation	gastroc_r/activation	 soleus_r/activation	tib_ant_r/activation	 ercspn_l/activation	 intobl_l/activation	 extobl_l/activation	    abd_l/activation	    add_l/activation	hamstrings_l/activation	bifemsh_l/activation	glut_max_l/activation	iliopsoas_l/activation	rect_fem_l/activation	  vasti_l/activation	gastroc_l/activation	 soleus_l/activation	tib_ant_l/activation	
          1.71448558	         -1.83511497	         -0.30123616	          4.39449220	          1.20013990	          1.00631053	         -0.01048483	         21.56287166	         -1.28320115	         -9.71592147	         -1.53016486	          0.41675425	          0.22098776	         -7.97503131	         -2.32378482	        -15.08663752	        -13.37095037	         10.69111911	         24.31510411	        -14.81714543	         -3.48044146	         -5.42966664	          0.01285746	          0.18745526	          0.07435903	          0.00999999	          0.20636005	          0.02006599	          0.04561172	          0.01285746	          0.08330005	          0.04517873	          0.01659479	          0.00999999	          0.00999999	          0.26037953	          0.00999999	          0.00999999	          0.00999999	          0.07086107	          0.00999999	          0.00999999	          0.08415872	          0.03404967	          0.01285746	          0.01155549	          0.00999999	          0.21655367	          0.25640489	          0.00999999	
          1.73163043	         -1.94198595	         -0.18448331	          4.22040267	          1.21635662	          1.00416031	         -0.00849891	         20.75843454	         -1.17776853	         -9.94466565	         -1.49083567	         -0.08611706	          0.20799657	         -8.54728553	         -2.43137683	        -15.79940059	        -13.96780524	         10.35871661	         25.50720064	        -14.34989504	         -3.12359271	         -5.45333144	          0.00999999	          0.20852036	          0.05783330	          0.02435322	          0.16049811	          0.01560648	          0.08765094	          0.00999999	          0.06478725	          0.03513810	          0.01290672	          0.01285746	          0.01109304	          0.29109999	          0.00999999	          0.00999999	          0.01285746	          0.05511273	          0.01285746	          0.02680934	          0.06545509	          0.04571071	          0.00999999	          0.00999999	          0.01451411	          0.20341534	          0.24611459	          0.00999999	
          1.74877529	         -2.03449466	         -0.13535201	          4.00040280	          1.23301870	          1.00247027	         -0.00640430	         19.91092713	         -1.03198421	        -10.31426618	         -1.39299134	         -0.86886058	          0.19999642	         -9.04987687	         -2.64070361	        -16.56295739	        -14.74236843	          9.80599268	         26.77003870	        -13.84119880	         -2.66296353	         -5.45499277	          0.00999999	          0.18461096	          0.04498029	          0.05393954	          0.12482863	          0.03683759	          0.06817119	          0.00999999	          0.05038878	          0.02732893	          0.01003830	          0.00999999	          0.00999999	          0.32958217	          0.00999999	          0.00999999	          0.00999999	          0.04286435	          0.00999999	          0.02625770	          0.05090819	          0.04316580	          0.00999999	          0.00999999	          0.01867063	          0.18238680	          0.22751493	          0.00999999	
          1.76592014	         -2.11566160	         -0.12287018	          3.72544213	          1.24979617	          1.00157938	         -0.00419930	         19.15232613	         -0.87000648	        -10.84117814	         -1.49171138	         -1.53505059	          0.17687496	         -9.39274664	         -2.93737204	        -17.35258433	        -15.80512766	          8.94026684	         28.10123908	        -13.33147278	         -2.13597992	         -5.43610229	          0.00999999	          0.14358258	          0.03498376	          0.07794200	          0.09708642	          0.04945329	          0.05302066	          0.02485672	          0.03919026	          0.02125528	          0.01837636	          0.00999999	          0.00999999	          0.34767002	          0.00999999	          0.00999999	          0.00999999	          0.03333807	          0.00999999	          0.03621438	          0.03959423	          0.03357253	          0.00999999	          0.00999999	          0.02259125	          0.14340566	          0.20387067	          0.00999999	
          1.78306500	         -2.18642333	         -0.13680295	          3.40760563	          1.26648527	          1.00169705	         -0.00190485	         18.49153935	         -0.69705196	        -11.40647015	         -1.81312119	         -1.94998295	          0.15446988	         -9.51149157	         -3.33160809	        -18.13639844	        -17.23942271	          7.73237837	         29.42988981	        -12.84108998	         -1.55990576	         -5.39681115	          0.00999999	          0.11167245	          0.02720889	          0.09505570	          0.07550970	          0.05123035	          0.04123722	          0.05585360	          0.03048052	          0.01653146	          0.01429235	          0.00999999	          0.00999999	          0.34364520	          0.03677846	          0.00999999	          0.00999999	          0.02592894	          0.00999999	          0.05534530	          0.03079472	          0.02611129	          0.00999999	          0.00999999	          0.03566935	          0.11153485	          0.16823213	          0.00999999	
